# xmcd
#
# Track frame offsets: 
#        150
#        21727
#        42570
#        57724
#        85787
#        103987
#        126488
#        146718
#        165848
#        184337
#        208739
#        238276
#        257785
#        272524
#        293757
#        311382
#        330952
#
# Disc length: 4613 seconds
#
# Revision: 0
# Processed by: cddbd v1.5.2PL0 Copyright (c) Steve Scherf et al.
# Submitted via: ExactAudioCopyFreeDBPlugin 1.0
#
DISCID=0a120311
DTITLE=Dana Gilles[ie - What Memories We Make
DYEAR=2019
DGENRE=Blues
TTITLE0=Ain't Gonna Play No Second Fiddle
TTITLE1=Really Love The Man
TTITLE2=Hold Me Gently
TTITLE3=Don't Mind Me
TTITLE4=Pack Your Bags
TTITLE5=No Tail To Wag
TTITLE6=Get My Rocks Off
TTITLE7=Wanderlust
TTITLE8=Getting Through To Me
TTITLE9=Never Knew
TTITLE10=Man Szied Job
TTITLE11=Stoke The Engine
TTITLE12=Goin' Crazy With The Blues
TTITLE13=Say Goodnight To The Night
TTITLE14=Do The Spin
TTITLE15=Gone At The Game
TTITLE16=Andy Warhol
EXTD=
EXTT0=
EXTT1=
EXTT2=
EXTT3=
EXTT4=
EXTT5=
EXTT6=
EXTT7=
EXTT8=
EXTT9=
EXTT10=
EXTT11=
EXTT12=
EXTT13=
EXTT14=
EXTT15=
EXTT16=
PLAYORDER=
